# xmcd
#
# Track frame offsets:
#	150
#	13813
#	26383
#	38527
#	52664
#	65084
#	77818
#	92181
#	106594
#	118455
#	133521
#	147486
#	161318
#	173595
#	194214
#	205972
#	219312
#	232986
#	245242
#	260150
#
# Disc length: 3617 seconds
#
# Revision: 0
# Processed by: cddbd v1.4PL0 Copyright (c) Steve Scherf et al.
# Submitted via: dBpowerAMP V4.0
#
DISCID=1e0e1f14
DTITLE=Ella Fitzgerald - Swingin' With Ella
DYEAR=1900
DGENRE=Blues
TTITLE0=(If You Can't Sing It) You'll Have To Swing It
TTITLE1=When My Sugar Walks Down The Street
TTITLE2=If Dreams Come True
TTITLE3=Under The Spell Of The Blues
TTITLE4=It's Only A Paper Moon
TTITLE5=Can't Help Lovin' Dat Man
TTITLE6=Darktown Strutter's Ball
TTITLE7=Into Each Life Some Rain Must Fall
TTITLE8=Sing Me A Swing Song (And Let Me Dance)
TTITLE9=Undecided
TTITLE10=Moonray
TTITLE11=Imagination
TTITLE12=Stone COld Dead In De Market
TTITLE13=I Want To Be Happy
TTITLE14=Baby Won't You Please Come Home
TTITLE15=You Won't Be Satisfied (Until You Break My Heart)
TTITLE16=It's Wonderful
TTITLE17=It's A Pity To Say Goodnight
TTITLE18=Oh Lady Be Good
TTITLE19=Flying Home
EXTD=submitted by jestacat@hotmail.com
EXTT0=
EXTT1=
EXTT2=
EXTT3=
EXTT4=
EXTT5=
EXTT6=
EXTT7=
EXTT8=
EXTT9=
EXTT10=
EXTT11=
EXTT12=
EXTT13=
EXTT14=
EXTT15=
EXTT16=
EXTT17=
EXTT18=
EXTT19=
PLAYORDER=
